<svg xmlns="http://www.w3.org/2000/svg" viewBox="0 0 32 32"><path fill="currentColor" fill-rule="evenodd" d="M1.709 22.557c.612 0 1.085.12 1.433.358.349.24.507.569.507.988 0 .36-.144.67-.368.93-.199.23-.435.403-.864.521l-.171.042v.024c1.082.121 1.54.58 1.54 1.377 0 .541-.16.967-.595 1.278-.436.31-1.052.466-1.826.466-.318 0-.633-.023-.904-.068-.241-.04-.353-.11-.755-.208l-.165-.039v-1.305c.541.13.562.229.83.293.27.063.556.098.783.098.35 0 .607-.04.767-.137a.467.467 0 00.241-.44c0-.158-.042-.248-.125-.334-.085-.086-.22-.085-.406-.128-.149-.035-.334.03-.555.057l-.173.011h-.28v-1.595h.288c.813 0 1.219-.132 1.219-.54 0-.154-.06-.196-.18-.27-.12-.075-.282-.112-.485-.112-.324 0-.658.091-1.002.274l-.173.1-.665-1.051c.313-.213.632-.364.96-.454.328-.09.7-.136 1.124-.136zM32 25.277v2.66H6.033v-2.66H32zM1.79 13.238c.383 0 .726.066 1.027.2.301.132.535.322.702.567.165.246.25.521.25.826 0 .228-.025.44-.082.633-.059.193-.14.384-.262.571a3.737 3.737 0 01-.467.592c-.181.186-.571.522-1.08 1.01l-.173.168v.025h2.164v1.064H-.46v-.787l1.466-1.437c.413-.424.704-.714.831-.87.127-.155.215-.288.265-.4a.845.845 0 00.075-.35.45.45 0 00-.15-.359c-.1-.087-.24-.13-.42-.13-.187 0-.375.052-.566.157-.152.084-.32.2-.504.347l-.141.116-.88-1.01c.305-.27.562-.46.77-.576.208-.116.434-.204.678-.265.244-.061.52-.092.825-.092zM32 15.17v2.66H6.033v-2.66H32zM2.787 4v5.851H1.705V6.743c0-.374-.081-.717-.065-1.028-.1.12-.313.245-.462.375l-.672.544-.83-1.004L1.708 4h1.079zM32 5.064v2.66H6.033v-2.66H32z"/></svg>