<svg xmlns="http://www.w3.org/2000/svg" viewBox="0 0 32 32"><path fill="currentColor" fill-rule="evenodd" d="M17.963.21a.237.237 0 01.362.229v12.124a.324.324 0 01.26.029l5.23 3.013a.327.327 0 010 .582l-5.227 3.006a.324.324 0 01-.26.029V31.77a.237.237 0 01-.47 0V16.5H9.969a2.075 2.075 0 01-1.629.784h-.136a2.089 2.089 0 11.266-4.168c.15.01.298.035.442.076a2.085 2.085 0 111.388 1.29c.09.253.132.52.122.788h7.432V.44a.237.237 0 01.109-.23zm6.158 27.569a2.089 2.089 0 110 4.178 2.089 2.089 0 010-4.178zm5.742 0a2.089 2.089 0 110 4.178 2.089 2.089 0 010-4.178zm-5.742.475a1.614 1.614 0 100 3.228 1.614 1.614 0 000-3.228zm5.742 0a1.614 1.614 0 100 3.228 1.614 1.614 0 000-3.228zm-25.08-7.205l.185.003a2.11 2.11 0 011.798 1.147 2.089 2.089 0 01-2.064 3.027 2.11 2.11 0 01-.442-.075 2.089 2.089 0 01-1.956 2.804h-.137a2.089 2.089 0 11.266-4.167c.15.01.298.035.442.075a2.093 2.093 0 01.583-2.283l.142-.117c.391-.293.876-.44 1.368-.411zm-2.39 3.196H2.29a1.614 1.614 0 101.079 2.83l-.01-.004a1.614 1.614 0 00-.965-2.826zm6.731-1.838a2.089 2.089 0 110 4.178 2.089 2.089 0 010-4.178zm0 .475a1.614 1.614 0 100 3.229 1.614 1.614 0 000-3.23zm14.997-1.028a2.089 2.089 0 110 4.178 2.089 2.089 0 010-4.178zm5.742 0a2.089 2.089 0 110 4.178 2.089 2.089 0 010-4.178zm-14.508.158a2.089 2.089 0 11-1.596 3.861 2.089 2.089 0 011.596-3.861zm14.508.316a1.614 1.614 0 100 3.229 1.614 1.614 0 000-3.229zm-15.299 0a1.614 1.614 0 100 3.229 1.614 1.614 0 000-3.229zm9.557 0a1.614 1.614 0 100 3.229 1.614 1.614 0 000-3.229zm-18.07-.259a1.614 1.614 0 10-.148 2.28 1.604 1.604 0 00.147-2.28zm.724-4.746a2.089 2.089 0 012.35 1.068 2.085 2.085 0 110 1.924 2.089 2.089 0 11-2.35-2.992zm4.201.417a1.614 1.614 0 000 3.229 1.623 1.623 0 001.614-1.614c0-.892-.722-1.615-1.614-1.615zm-3.703 0a1.614 1.614 0 100 3.229 1.623 1.623 0 001.614-1.614c0-.892-.723-1.615-1.614-1.615zm16.848-1.258a2.089 2.089 0 110 4.178 2.089 2.089 0 010-4.178zm-21.296 0a2.089 2.089 0 110 4.178 2.089 2.089 0 010-4.178zm27.038 0a2.089 2.089 0 110 4.178 2.089 2.089 0 010-4.178zm0 .474a1.614 1.614 0 100 3.23 1.614 1.614 0 000-3.23zm-27.038 0a1.614 1.614 0 100 3.23 1.614 1.614 0 000-3.23zm21.296 0a1.614 1.614 0 100 3.23 1.614 1.614 0 000-3.23zM8.434 13.58H8.33a1.614 1.614 0 101.078 2.83l-.01-.004a1.614 1.614 0 00-.964-2.826zm21.43-2.65a2.089 2.089 0 110 4.178 2.089 2.089 0 010-4.178zm-5.743 0a2.089 2.089 0 110 4.178 2.089 2.089 0 010-4.178zm5.742.471v.004a1.614 1.614 0 101.615 1.614c0-.892-.723-1.616-1.615-1.618zm-5.742 0v.004a1.614 1.614 0 101.615 1.614c0-.892-.723-1.616-1.615-1.618zm-13.141-.546h-.105c-.852 0-1.557.663-1.61 1.514l-.003.143a1.615 1.615 0 101.718-1.657zm-9.1-4.727A2.085 2.085 0 013.21 9.96a2.085 2.085 0 11-1.88.187 2.085 2.085 0 01.55-4.019zm1.181 4.287a1.614 1.614 0 10-1.227 2.987 1.614 1.614 0 001.227-2.987zM6.9 7.036a2.089 2.089 0 110 4.178 2.089 2.089 0 010-4.178zm0 .475a1.614 1.614 0 100 3.229 1.614 1.614 0 000-3.229zm6.656-1.24a2.089 2.089 0 11-1.592 3.862 2.089 2.089 0 011.592-3.863zm-.781.316a1.614 1.614 0 100 3.229 1.614 1.614 0 000-3.229zm-10.693 0a1.614 1.614 0 100 3.229 1.614 1.614 0 000-3.229zm22.04-1.41a2.089 2.089 0 110 4.179 2.089 2.089 0 010-4.178zm5.742 0a2.089 2.089 0 110 4.179 2.089 2.089 0 010-4.178zm-5.742.475a1.614 1.614 0 101.615 1.615 1.618 1.618 0 00-1.615-1.608v-.007zm5.742 0a1.614 1.614 0 101.615 1.615 1.618 1.618 0 00-1.615-1.608v-.007zM8.017 1.298a2.089 2.089 0 110 4.178 2.089 2.089 0 010-4.178zm0 .475a1.614 1.614 0 100 3.228 1.614 1.614 0 000-3.228zM24.923.16a2.089 2.089 0 11-1.604 3.858A2.089 2.089 0 0124.923.16zm4.94-.16a2.089 2.089 0 110 4.178 2.089 2.089 0 010-4.178zm-5.742.475a1.614 1.614 0 100 3.228 1.614 1.614 0 000-3.228zm5.742 0a1.614 1.614 0 100 3.228 1.614 1.614 0 000-3.228z"/></svg>
